<?xml version="1.0" standalone="no"?><!DOCTYPE svg PUBLIC "-//W3C//DTD SVG 1.1//EN" "http://www.w3.org/Graphics/SVG/1.1/DTD/svg11.dtd"><svg t="1667831096172" class="icon" viewBox="0 0 1024 1024" version="1.1" xmlns="http://www.w3.org/2000/svg" p-id="2770" xmlns:xlink="http://www.w3.org/1999/xlink" width="128" height="128"><path d="M512 512m-98.133333 0a98.133333 98.133333 0 1 0 196.266666 0 98.133333 98.133333 0 1 0-196.266666 0Z" fill="#BBC3C9" p-id="2771"></path><path d="M891.733333 418.133333H853.333333c-42.666667 0-64-51.2-34.133333-81.066666l25.6-25.6c17.066667-17.066667 17.066667-46.933333 0-68.266667l-68.266667-68.266667c-17.066667-17.066667-46.933333-17.066667-68.266666 0l-25.6 25.6c-29.866667 29.866667-81.066667 8.533333-81.066667-34.133333v-34.133333c0-25.6-21.333333-46.933333-46.933333-46.933334h-93.866667c-25.6 0-46.933333 21.333333-46.933333 46.933334V170.666667c0 42.666667-51.2 64-81.066667 34.133333l-21.333333-29.866667c-17.066667-17.066667-46.933333-17.066667-68.266667 0L174.933333 243.2c-17.066667 17.066667-17.066667 46.933333 0 68.266667l25.6 25.6c29.866667 29.866667 8.533333 81.066667-29.866666 81.066666h-38.4c-25.6 0-46.933333 21.333333-46.933334 46.933334v93.866666c0 25.6 21.333333 46.933333 46.933334 46.933334H170.666667c42.666667 0 64 51.2 34.133333 81.066666l-25.6 25.6c-17.066667 17.066667-17.066667 46.933333 0 68.266667l68.266667 68.266667c17.066667 17.066667 46.933333 17.066667 68.266666 0l25.6-25.6c29.866667-29.866667 81.066667-8.533333 81.066667 34.133333v34.133333c0 25.6 21.333333 46.933333 46.933333 46.933334h93.866667c25.6 0 46.933333-21.333333 46.933333-46.933334V853.333333c0-42.666667 51.2-64 81.066667-34.133333l25.6 25.6c17.066667 17.066667 46.933333 17.066667 68.266667 0l68.266666-68.266667c17.066667-17.066667 17.066667-46.933333 0-68.266666l-25.6-25.6c-29.866667-29.866667-8.533333-81.066667 34.133334-81.066667h34.133333c25.6 0 46.933333-21.333333 46.933333-46.933333v-93.866667c-4.266667-21.333333-25.6-42.666667-51.2-42.666667zM512 695.466667c-102.4 0-183.466667-81.066667-183.466667-183.466667S409.6 328.533333 512 328.533333s183.466667 81.066667 183.466667 183.466667-81.066667 183.466667-183.466667 183.466667z" fill="#BBC3C9" p-id="2772"></path></svg>