<?xml version="1.0" encoding="utf-8"?>
<!-- Generator: Adobe Illustrator 25.0.0, SVG Export Plug-In . SVG Version: 6.00 Build 0)  -->
<svg version="1.1" id="图层_1" xmlns="http://www.w3.org/2000/svg" xmlns:xlink="http://www.w3.org/1999/xlink" x="0px" y="0px"
	 viewBox="0 0 128 128" style="enable-background:new 0 0 128 128;" xml:space="preserve">
<style type="text/css">
	.st0{fill:#D8D8D8;}
	.st1{opacity:0.7;fill:#EAEAEA;enable-background:new    ;}
	.st2{fill:#7C7C7C;}
</style>
<g id="图层_3">
	<circle class="st0" cx="64" cy="64" r="64"/>
</g>
<g id="图层_2_1_">
	<circle class="st1" cx="64" cy="64" r="58.1"/>
</g>
<g id="图层_1_1_">
	<path class="st2" d="M100.5,30.3h-0.2C80.6,30.5,60.9,45.1,51,55c-9.9,0-24.8,5-29.8,14.9H46l-5,9.9l9.8,9.9l9.9-5v24.8
		c9.9-5,14.9-19.9,14.9-29.8c9.9-9.9,24.5-29.6,24.6-49.3L100.5,30.3z M77.5,48.6c2.5,0,4.6,2,4.6,4.6s-2,4.6-4.6,4.6
		c-2.5,0-4.6-2-4.6-4.6S75,48.6,77.5,48.6z M38.9,82.7c0,0-7.9,3.1-7.9,16.9h0h0c13.8,0,16.9-7.9,16.9-7.9l-0.9-1
		c0,0-3.5,2.9-10,2.9h-0.1v-0.1c0-6.4,2.9-10,2.9-10L38.9,82.7z"/>
</g>
</svg>
