<?xml version="1.0" standalone="no"?><!DOCTYPE svg PUBLIC "-//W3C//DTD SVG 1.1//EN" "http://www.w3.org/Graphics/SVG/1.1/DTD/svg11.dtd"><svg t="1668869867247" class="icon" viewBox="0 0 1197 1024" version="1.1" xmlns="http://www.w3.org/2000/svg" p-id="6874" width="18.703125" height="16" xmlns:xlink="http://www.w3.org/1999/xlink"><path d="M709.30958866 935.1232877c10.87397227-13.66438359 23.73698672-28.57808232 38.96301445-46.14246563l7.58219151-8.74931485c9.48493125-10.94794541 17.36712334-19.4054792 24.93698643-27.60821982 15.05753437-16.2410959 28.08493154-30.25479463 51.87945146-62.6465751 23.34657568-31.80410948 38.4287669-55.73835615 35.96712363-96.77260283-1.19589082-21.11917852-2.03835586-35.61369873-15.81369873-52.62739717-8.27671201-10.19999971-23.64246562-25.03150664-39.93698584-40.72191767-17.63013692-17.00958867-32.97123281-33.19315049-53.75342461-54.85068546-20.79862998-21.57123252-47.68767158-76.74657539-47.68767158-76.7465745-8.00547979-18.26301357-22.9643833-56.18630127-27.13150722-91.44657598L623.2178079 63.47945234H449.11095868L363.9356161 458.63287666 288.51232899 63.47945234H82.99999999l185.40410976 897.73150693h173.10821924l86.53972588-388.59863026 76.53698613 388.59863026h80.36301357l24.35753409-26.08767158" fill="#2788B5" p-id="6875"></path><path d="M1071.63561668 117.20410947c18.18082178-21.07808262 33.16438388-38.16164355 45.46438331-53.66712304h-276.12328799c-16.43835586 20.97945175-49.78767129 61.42191768-68.83972559 97.29041045-25.1589041 47.49041075-45.85890411 83.11643877-47.91369902 170.54383622l0.92876748 28.15890381c0 41.67945175 29.80273974 102.87534287 29.80273975 102.87534288 4.66027383 10.84931543 20.43287666 33.81369873 30.52191797 47.78630068h-0.25479493a743.25205459 743.25205459 0 0 0 5.51917793 7.26164385c29.75753408 34.09726026 74.78630156 72.20136972 94.67260312 96.66986308 23.24383594 28.68082207 23.8643833 55.61095869 25.11780821 76.54931543 3.36164414 56.59726026-19.53287666 90.70684893-44.01780821 124.12602774-37.03561612 50.50273974-50.37534229 59.86027354-78.8835621 92.87260224-18.18082178 21.04931513-33.15205459 38.10410948-45.4643833 53.53972647h285.3c16.73013692-21.47260253 40.55342432-61.12602773 59.67534287-97.22054795 25.1589041-47.49041075 45.88767158-83.12054766 47.91369815-170.46164443l-0.92876661-28.18356153c0-41.74931513-29.80273974-102.96164356-29.80273974-102.96164355-4.65616406-10.84931543-20.44520508-33.67397286-30.55068545-47.78630156h0.25479492c-3.23835644-4.33561641-5.49041133-7.23287637-5.49041133-7.23287638-29.75753408-34.12191797-74.81506817-72.17260312-94.67260225-96.66986308-23.24383594-28.75068457-23.8643833-55.63972617-25.1178082-76.56575361-3.36164414-56.53972617 19.53287666-90.70274003 44.04657481-124.12191797 37.01917793-50.37534229 50.34657568-59.83150693 78.8424662-92.80273975" fill="#FA930D" p-id="6876"></path></svg>